<?xml version="1.0" encoding="utf-8"?>
<!-- Generator: Adobe Illustrator 21.1.0, SVG Export Plug-In . SVG Version: 6.00 Build 0)  -->
<svg version="1.1" id="Layer_1" xmlns="http://www.w3.org/2000/svg" xmlns:xlink="http://www.w3.org/1999/xlink" x="0px" y="0px"
	 viewBox="0 0 240 80" style="enable-background:new 0 0 240 80;" xml:space="preserve">
<style type="text/css">
	.st0{fill:#444444;}
</style>
<g>
	<path class="st0" d="M118.9,33.8c-0.7-1.9-1.6-3.6-3-5.1c-1.3-1.5-3-2.7-5-3.6c-2-0.9-4.4-1.4-7.2-1.4c-2.4,0-4.6,0.4-6.6,1.1
		c-2,0.8-3.7,1.8-5.1,3.2c-1.2,1.2-2.1,2.5-2.9,4.1c-0.1-1-0.3-2-0.6-2.8c-0.5-1.1-1.2-2-2.3-2.7c-1.1-0.7-2.5-1.2-4.2-1.6
		c-1.7-0.4-3.9-0.5-6.5-0.5h-8.2h-8.4h-0.7h-9.3v10.4h-9.5V24.5H29.2v30.8h10.1V43.4h9.5v11.9h9.3h0.7h8.4H68h3.2V44.6h3.1
		c1.2,0,2.1,0.1,2.8,0.3c0.7,0.2,1.3,0.5,1.6,0.9c0.4,0.4,0.6,1,0.7,1.6c0.1,0.7,0.2,1.5,0.2,2.5c0,1.4,0,2.5,0.1,3.5
		c0.1,0.9,0.2,1.6,0.4,1.9h10.2v-0.9c-0.3,0-0.5-0.1-0.7-0.3c-0.1-0.2-0.2-0.5-0.3-0.9c-0.1-0.4-0.1-1-0.1-1.7c0-0.7,0-1.5,0-2.5
		c0-0.4,0-0.8,0-1.2c0.7,1.5,1.6,2.9,2.8,4c1.4,1.4,3.1,2.5,5.1,3.2c2,0.7,4.2,1.1,6.6,1.1c2.3,0,4.4-0.4,6.4-1.1
		c2-0.7,3.7-1.8,5.1-3.2c1.5-1.4,2.6-3.1,3.4-5.1c0.8-2,1.2-4.4,1.2-7C119.9,37.7,119.6,35.7,118.9,33.8z M78.7,37.2
		c-0.8,0.4-2,0.6-3.6,0.6h-1h-3h-3.8v10.3h-8.4v-4.8h6.1v-7.2h-6.1v-4.4h8.4v0h6.8v0h1.7c1.2,0,2.2,0.3,2.9,0.8
		c0.8,0.5,1.1,1.3,1.1,2.4C79.9,36,79.5,36.7,78.7,37.2z M86.2,41.7c-0.7-0.3-1.4-0.6-2.2-0.9c1.6-0.4,2.8-1.2,3.6-2.3
		c0,0.4,0,0.7,0,1.1c0,1.2,0.1,2.3,0.2,3.3C87.4,42.4,86.9,42,86.2,41.7z M109.4,43.3c-0.2,1.1-0.6,2-1.1,2.8
		c-0.5,0.8-1.1,1.4-1.9,1.9c-0.8,0.4-1.7,0.7-2.8,0.7c-1.2,0-2.2-0.3-3-0.8c-0.8-0.6-1.4-1.3-1.9-2.1c-0.5-0.9-0.8-1.8-0.9-2.8
		c-0.2-1-0.3-2.1-0.3-3.1c0-1,0.1-2,0.3-3c0.2-1,0.5-1.9,1-2.7c0.5-0.8,1.1-1.5,1.8-2c0.8-0.5,1.7-0.8,2.9-0.8
		c1.1,0,2.1,0.2,2.8,0.7c0.8,0.5,1.4,1.1,1.9,1.9c0.5,0.8,0.8,1.7,1.1,2.8c0.2,1,0.3,2.1,0.3,3.1C109.8,41,109.7,42.2,109.4,43.3z"
		/>
	<g>
		<path class="st0" d="M134.3,25.5c0.7,1.7,1.4,3.5,2.3,5.4c0.8,1.9,1.6,3.9,2.5,5.9c0.8,2,1.7,4,2.5,5.9c0.8,1.9,1.6,3.7,2.3,5.4
			c0.7,1.7,1.4,3.2,2,4.5c0.6,1.3,1.1,2.4,1.5,3.1c-0.4-0.1-0.8-0.1-1.1-0.2c-0.4,0-0.7-0.1-1.1-0.1c-0.4,0-0.8,0-1.1,0.1
			c-0.4,0-0.7,0.1-1.1,0.2c-0.2-0.7-0.5-1.6-0.8-2.5c-0.3-0.9-0.7-1.9-1.1-2.9c-0.4-1-0.8-2.1-1.3-3.1c-0.4-1-0.9-2-1.2-3
			c-0.9,0-1.8-0.1-2.8-0.1c-0.9,0-1.9,0-2.8,0c-0.9,0-1.8,0-2.6,0c-0.9,0-1.7,0-2.6,0.1c-0.9,2.2-1.7,4.4-2.5,6.4
			c-0.7,2-1.3,3.7-1.7,5.1c-0.3-0.1-0.6-0.1-0.8-0.2c-0.3,0-0.5-0.1-0.8-0.1c-0.3,0-0.5,0-0.8,0.1c-0.3,0-0.5,0.1-0.8,0.2
			c2.3-5.1,4.6-10.1,6.8-15.1c2.2-5,4.4-10,6.6-15.1H134.3z M132.9,31.3l-4.7,10.9c0.7,0,1.5,0,2.3,0c0.8,0,1.6,0,2.3,0
			c0.8,0,1.6,0,2.4,0c0.8,0,1.6,0,2.4-0.1L132.9,31.3z"/>
		<path class="st0" d="M150.7,47.7c0-1,0-2,0-3.2c0-1.1,0-2.3-0.1-3.4c0-1.1-0.1-2.2-0.1-3.2c0-1-0.1-1.9-0.2-2.7
			c0.7,0.1,1.4,0.2,1.9,0.2c0.6,0,1.2-0.1,1.9-0.2c-0.1,0.7-0.2,1.5-0.3,2.2c-0.1,0.7-0.1,1.4-0.1,2.1h0.1c0.2-0.5,0.5-1,0.9-1.5
			c0.4-0.5,0.9-1,1.4-1.5c0.6-0.5,1.3-0.9,2.1-1.2c0.8-0.3,1.8-0.5,2.9-0.5c1.1,0,2.2,0.2,3.2,0.6c1.1,0.4,2,1.1,2.8,1.9
			c0.8,0.9,1.5,2,2,3.3c0.5,1.3,0.8,2.9,0.8,4.8c0,1.8-0.3,3.4-0.8,4.8c-0.5,1.3-1.3,2.5-2.1,3.4c-0.9,0.9-1.9,1.6-3,2
			c-1.1,0.4-2.2,0.7-3.4,0.7c-1.6,0-3-0.4-4.1-1.1c-1.1-0.7-2-1.8-2.7-3.1h-0.1v2.7c0,1,0,2.1,0,3.2c0,1.1,0,2.3,0.1,3.4
			c0,1.1,0.1,2.2,0.1,3.2c0,1,0.1,1.9,0.2,2.6c-0.7-0.1-1.4-0.2-1.9-0.2c-0.6,0-1.2,0.1-1.9,0.2c0.1-0.7,0.1-1.6,0.2-2.6
			c0-1,0.1-2.1,0.1-3.2c0-1.1,0-2.2,0.1-3.4c0-1.1,0-2.2,0-3.2V47.7z M166.3,45.3c0-1.7-0.2-3.1-0.5-4.3c-0.4-1.1-0.8-2-1.4-2.7
			c-0.6-0.7-1.2-1.1-1.9-1.4c-0.7-0.3-1.4-0.4-2.1-0.4c-1.2,0-2.2,0.2-3,0.7c-0.8,0.5-1.5,1.1-2,2c-0.5,0.8-0.9,1.8-1.1,2.9
			c-0.2,1.1-0.3,2.3-0.3,3.5c0,3,0.5,5.2,1.6,6.7c1.1,1.5,2.6,2.3,4.7,2.3c1,0,1.9-0.2,2.7-0.7c0.8-0.5,1.4-1.1,1.9-2
			c0.5-0.8,0.9-1.8,1.1-3C166.2,47.8,166.3,46.6,166.3,45.3z"/>
		<path class="st0" d="M174.7,47.7c0-1,0-2,0-3.2c0-1.1,0-2.3-0.1-3.4c0-1.1-0.1-2.2-0.1-3.2c0-1-0.1-1.9-0.2-2.7
			c0.7,0.1,1.4,0.2,1.9,0.2c0.6,0,1.2-0.1,1.9-0.2c-0.1,0.7-0.2,1.5-0.3,2.2c-0.1,0.7-0.1,1.4-0.1,2.1h0.1c0.2-0.5,0.5-1,0.9-1.5
			c0.4-0.5,0.9-1,1.4-1.5c0.6-0.5,1.3-0.9,2.1-1.2c0.8-0.3,1.8-0.5,2.9-0.5c1.1,0,2.2,0.2,3.2,0.6c1.1,0.4,2,1.1,2.8,1.9
			c0.8,0.9,1.5,2,2,3.3c0.5,1.3,0.8,2.9,0.8,4.8c0,1.8-0.3,3.4-0.8,4.8c-0.5,1.3-1.3,2.5-2.1,3.4c-0.9,0.9-1.9,1.6-3,2
			c-1.1,0.4-2.2,0.7-3.4,0.7c-1.6,0-3-0.4-4.1-1.1c-1.1-0.7-2-1.8-2.7-3.1h-0.1v2.7c0,1,0,2.1,0,3.2c0,1.1,0,2.3,0.1,3.4
			c0,1.1,0.1,2.2,0.1,3.2c0,1,0.1,1.9,0.2,2.6c-0.7-0.1-1.4-0.2-1.9-0.2c-0.6,0-1.2,0.1-1.9,0.2c0.1-0.7,0.1-1.6,0.2-2.6
			c0-1,0.1-2.1,0.1-3.2c0-1.1,0.1-2.2,0.1-3.4c0-1.1,0-2.2,0-3.2V47.7z M190.2,45.3c0-1.7-0.2-3.1-0.5-4.3c-0.4-1.1-0.8-2-1.4-2.7
			c-0.6-0.7-1.2-1.1-1.9-1.4c-0.7-0.3-1.4-0.4-2.1-0.4c-1.2,0-2.2,0.2-3,0.7c-0.8,0.5-1.5,1.1-2,2c-0.5,0.8-0.9,1.8-1.1,2.9
			c-0.2,1.1-0.3,2.3-0.3,3.5c0,3,0.5,5.2,1.6,6.7c1.1,1.5,2.6,2.3,4.7,2.3c1,0,1.9-0.2,2.7-0.7c0.8-0.5,1.4-1.1,1.9-2
			c0.5-0.8,0.9-1.8,1.1-3C190.1,47.8,190.2,46.6,190.2,45.3z"/>
		<path class="st0" d="M198.8,51.6c0.1,0.3,0.4,0.6,0.7,0.9c0.3,0.3,0.7,0.7,1.1,1c0.4,0.3,0.9,0.6,1.4,0.8c0.5,0.2,1.1,0.3,1.7,0.3
			c0.5,0,1.1-0.1,1.6-0.3c0.5-0.2,0.9-0.4,1.3-0.7c0.4-0.3,0.7-0.7,0.9-1.2c0.2-0.5,0.3-1,0.3-1.7c0-0.9-0.3-1.6-0.8-2
			c-0.5-0.5-1.1-0.9-1.9-1.2c-0.7-0.3-1.6-0.6-2.5-0.8c-0.9-0.2-1.7-0.6-2.5-1c-0.7-0.4-1.4-1-1.9-1.7c-0.5-0.7-0.8-1.6-0.8-2.8
			c0-0.9,0.2-1.8,0.5-2.6c0.3-0.8,0.8-1.5,1.4-2c0.6-0.6,1.3-1,2.2-1.4c0.9-0.3,1.9-0.5,3.1-0.5c1.1,0,2,0.1,2.7,0.4
			c0.7,0.3,1.4,0.5,2.1,0.8c-0.1,0.2-0.2,0.4-0.3,0.7c-0.1,0.3-0.2,0.6-0.3,0.9c-0.1,0.3-0.2,0.6-0.2,0.8c-0.1,0.3-0.1,0.5-0.1,0.6
			h-0.5c-0.2-0.7-0.7-1.3-1.3-1.8c-0.7-0.5-1.5-0.8-2.5-0.8c-0.4,0-0.9,0.1-1.3,0.2c-0.4,0.1-0.8,0.4-1.2,0.6
			c-0.3,0.3-0.6,0.7-0.9,1.1c-0.2,0.5-0.3,1-0.3,1.6c0,0.9,0.3,1.6,0.8,2.1c0.5,0.5,1.1,0.9,1.9,1.2c0.7,0.3,1.6,0.5,2.5,0.8
			c0.9,0.2,1.7,0.5,2.5,0.9c0.7,0.4,1.4,0.9,1.9,1.6c0.5,0.7,0.8,1.6,0.8,2.8c0,0.8-0.2,1.6-0.5,2.5c-0.4,0.8-0.9,1.5-1.5,2.2
			c-0.7,0.6-1.5,1.2-2.4,1.6c-0.9,0.4-2,0.6-3.2,0.6c-1.3,0-2.4-0.2-3.3-0.5c-0.9-0.3-1.6-0.6-2.2-1c0.2-0.4,0.4-0.9,0.5-1.5
			c0.2-0.6,0.3-1.2,0.3-1.6H198.8z"/>
	</g>
</g>
</svg>
